<?xml version="1.0" encoding="utf-8"?>
<!-- Generator: Adobe Illustrator 18.1.1, SVG Export Plug-In . SVG Version: 6.00 Build 0)  -->
<svg version="1.1" id="Icons" xmlns="http://www.w3.org/2000/svg" xmlns:xlink="http://www.w3.org/1999/xlink" x="0px" y="0px"
	 viewBox="0 0 144 144" enable-background="new 0 0 144 144" xml:space="preserve">
<g id="Travel_Planning">
</g>
<g id="Globe_1_">
</g>
<g id="Map">
</g>
<g id="Flight_Date">
</g>
<g id="Alarm_Clock">
</g>
<g id="Small_Suitcase">
</g>
<g id="Backpack">
</g>
<g id="Large_Suitcase">
</g>
<g id="Toiletries">
</g>
<g id="Camera">
</g>
<g id="Phone">
</g>
<g id="Laptop">
</g>
<g id="Passport">
</g>
<g id="Taxi">
</g>
<g id="Signs">
</g>
<g id="Airport">
</g>
<g id="Wind_Sock">
</g>
<g id="Check-In">
</g>
<g id="Ticket">
</g>
<g id="Wallet">
</g>
<g id="Tag">
</g>
<g id="Escalator">
</g>
<g id="Body_Scanner">
</g>
<g id="Walking_with_Suitcase">
</g>
<g id="Gate_Number">
</g>
<g id="Seats">
</g>
<g id="Seat_Belt">
</g>
<g id="Take_Off">
</g>
<g id="Plane_Window">
</g>
<g id="International_Travel">
</g>
<g id="Meal">
</g>
<g id="Landing">
</g>
<g id="Shuttle_Bus">
</g>
<g id="Hotel">
</g>
<g id="Hotel_Check-In">
</g>
<g id="Valet_1_">
</g>
<g id="Baggage_Trolley">
</g>
<g id="Door_Hanger">
</g>
<g id="Hotel_Room">
	<g id="XMLID_646_">
		<path id="XMLID_1323_" opacity="0.1" d="M132,100h-24c-1.105,0-2-0.895-2-2V82c0-1.1,0.9-2,2-2h24c1.1,0,2,0.9,2,2v16
			C134,99.105,133.105,100,132,100z"/>
		<path id="XMLID_1322_" opacity="0.1" d="M94,91V78c0-3.3-2.7-6-6-6H16c-3.3,0-6,2.7-6,6v13H94z"/>
		
			<path id="XMLID_1321_" fill="none" stroke="#000000" stroke-width="4" stroke-linecap="round" stroke-linejoin="round" stroke-miterlimit="10" d="
			M92,100H12c-1.105,0-2-0.895-2-2V78c0-3.3,2.7-6,6-6h72c3.3,0,6,2.7,6,6v20C94,99.105,93.105,100,92,100z"/>
		
			<path id="XMLID_1320_" fill="none" stroke="#000000" stroke-width="4" stroke-linecap="round" stroke-linejoin="round" stroke-miterlimit="10" d="
			M132,100h-24c-1.105,0-2-0.895-2-2V82c0-1.1,0.9-2,2-2h24c1.1,0,2,0.9,2,2v16C134,99.105,133.105,100,132,100z"/>
		
			<line id="XMLID_1319_" fill="none" stroke="#000000" stroke-width="4" stroke-linecap="round" stroke-linejoin="round" stroke-miterlimit="10" x1="10" y1="91" x2="94" y2="91"/>
		
			<line id="XMLID_1318_" fill="none" stroke="#000000" stroke-width="4" stroke-linecap="round" stroke-linejoin="round" stroke-miterlimit="10" x1="17" y1="104" x2="17" y2="100"/>
		
			<line id="XMLID_1317_" fill="none" stroke="#000000" stroke-width="4" stroke-linecap="round" stroke-linejoin="round" stroke-miterlimit="10" x1="87" y1="104" x2="87" y2="100"/>
		
			<line id="XMLID_1316_" fill="none" stroke="#000000" stroke-width="4" stroke-linecap="round" stroke-linejoin="round" stroke-miterlimit="10" x1="110" y1="104" x2="110" y2="100"/>
		
			<line id="XMLID_1315_" fill="none" stroke="#000000" stroke-width="4" stroke-linecap="round" stroke-linejoin="round" stroke-miterlimit="10" x1="130" y1="104" x2="130" y2="100"/>
		
			<path id="XMLID_1314_" fill="none" stroke="#000000" stroke-width="4" stroke-linecap="round" stroke-linejoin="round" stroke-miterlimit="10" d="
			M50,72H22c-1.1,0-2-0.9-2-2v0c0-4.4,3.6-8,8-8h16c4.4,0,8,3.6,8,8v0C52,71.1,51.1,72,50,72z"/>
		
			<path id="XMLID_1313_" fill="none" stroke="#000000" stroke-width="4" stroke-linecap="round" stroke-linejoin="round" stroke-miterlimit="10" d="
			M82,72H54c-1.1,0-2-0.9-2-2v0c0-4.4,3.6-8,8-8h16c4.4,0,8,3.6,8,8v0C84,71.1,83.1,72,82,72z"/>
		
			<line id="XMLID_1312_" fill="none" stroke="#000000" stroke-width="4" stroke-linecap="round" stroke-linejoin="round" stroke-miterlimit="10" x1="117" y1="90" x2="123" y2="90"/>
		
			<path id="XMLID_1311_" fill="none" stroke="#000000" stroke-width="4" stroke-linecap="round" stroke-linejoin="round" stroke-miterlimit="10" d="
			M120,60c-6.999,0-6.999,4.545-6.999,10s4.484,10,6.999,10s6.999-4.545,6.999-10S127.327,60,120,60z"/>
		
			<polygon id="XMLID_1310_" fill="none" stroke="#000000" stroke-width="4" stroke-linecap="round" stroke-linejoin="round" stroke-miterlimit="10" points="
			107,58 134,58 124,40 116,40 		"/>
	</g>
</g>
<g id="Shower">
</g>
</svg>
