<?xml version="1.0" encoding="utf-8"?>
<!-- Generator: Adobe Illustrator 18.1.1, SVG Export Plug-In . SVG Version: 6.00 Build 0)  -->
<svg version="1.1" id="Icons" xmlns="http://www.w3.org/2000/svg" xmlns:xlink="http://www.w3.org/1999/xlink" x="0px" y="0px"
	 viewBox="0 0 144 144" enable-background="new 0 0 144 144" xml:space="preserve">
<g id="Travel_Planning">
</g>
<g id="Globe_1_">
</g>
<g id="Map">
</g>
<g id="Flight_Date">
</g>
<g id="Alarm_Clock">
</g>
<g id="Small_Suitcase">
</g>
<g id="Backpack">
</g>
<g id="Large_Suitcase">
</g>
<g id="Toiletries">
</g>
<g id="Camera">
</g>
<g id="Phone">
</g>
<g id="Laptop">
</g>
<g id="Passport">
	<g id="XMLID_663_">
		<polygon id="XMLID_1500_" opacity="0.1" points="97.695,125.119 111,81 105,125 		"/>
		<polygon id="XMLID_1499_" opacity="0.1" points="73,14 118,20 118.149,27.18 		"/>
		<circle id="XMLID_1498_" opacity="0.15" cx="78" cy="53" r="21.995"/>
		
			<text id="XMLID_1497_" transform="matrix(0.9762 0.2621 -0.2583 0.966 36.0423 98.8129)" font-family="'MyriadPro-Semibold'" font-size="24.4166">Pass</text>
		<circle id="XMLID_1495_" fill="none" stroke="#000000" stroke-width="4" stroke-miterlimit="10" cx="77" cy="53" r="21.995"/>
		
			<ellipse id="XMLID_1494_" transform="matrix(0.9659 0.2588 -0.2588 0.9659 16.3411 -18.1231)" fill="none" stroke="#000000" stroke-width="4" stroke-miterlimit="10" cx="77" cy="53" rx="12.219" ry="21.995"/>
		
			<line id="XMLID_1493_" fill="none" stroke="#000000" stroke-width="4" stroke-miterlimit="10" x1="71.307" y1="74.245" x2="82.693" y2="31.755"/>
		
			<line id="XMLID_1492_" fill="none" stroke="#000000" stroke-width="4" stroke-miterlimit="10" x1="98.245" y1="58.693" x2="55.755" y2="47.307"/>
		<g id="XMLID_1488_">
			<path id="XMLID_1491_" fill="none" stroke="#000000" stroke-width="4" stroke-miterlimit="10" d="M118.149,28.18l0.67-5.143
				c0.171-1.316-0.77-2.536-2.091-2.712l-55.179-7.34"/>
			<path id="XMLID_1490_" fill="none" stroke="#000000" stroke-width="4" stroke-miterlimit="10" d="M97.695,126.119l5.16,0.686
				c1.323,0.176,2.545-0.758,2.717-2.074l7.128-54.718"/>
			<path id="XMLID_1489_" fill="none" stroke="#000000" stroke-width="4" stroke-miterlimit="10" d="M93.282,133.923l-70.615-18.958
				c-1.193-0.32-1.91-1.554-1.592-2.742L47.97,11.654c0.318-1.188,1.554-1.897,2.747-1.577l70.615,18.958
				c1.193,0.32,1.91,1.554,1.592,2.742L96.03,132.346C95.712,133.534,94.476,134.243,93.282,133.923z"/>
		</g>
	</g>
</g>
<g id="Taxi">
</g>
<g id="Signs">
</g>
<g id="Airport">
</g>
<g id="Wind_Sock">
</g>
<g id="Check-In">
</g>
<g id="Ticket">
</g>
<g id="Wallet">
</g>
<g id="Tag">
</g>
<g id="Escalator">
</g>
<g id="Body_Scanner">
</g>
<g id="Walking_with_Suitcase">
</g>
<g id="Gate_Number">
</g>
<g id="Seats">
</g>
<g id="Seat_Belt">
</g>
<g id="Take_Off">
</g>
<g id="Plane_Window">
</g>
<g id="International_Travel">
</g>
<g id="Meal">
</g>
<g id="Landing">
</g>
<g id="Shuttle_Bus">
</g>
<g id="Hotel">
</g>
<g id="Hotel_Check-In">
</g>
<g id="Valet_1_">
</g>
<g id="Baggage_Trolley">
</g>
<g id="Door_Hanger">
</g>
<g id="Hotel_Room">
</g>
<g id="Shower">
</g>
</svg>
