<?xml version="1.0" encoding="utf-8"?>
<!-- Generator: Adobe Illustrator 18.1.1, SVG Export Plug-In . SVG Version: 6.00 Build 0)  -->
<svg version="1.1" id="Icons" xmlns="http://www.w3.org/2000/svg" xmlns:xlink="http://www.w3.org/1999/xlink" x="0px" y="0px"
	 viewBox="0 0 144 144" enable-background="new 0 0 144 144" xml:space="preserve">
<g id="Travel_Planning">
</g>
<g id="Globe_1_">
</g>
<g id="Map">
</g>
<g id="Flight_Date">
</g>
<g id="Alarm_Clock">
</g>
<g id="Small_Suitcase">
</g>
<g id="Backpack">
</g>
<g id="Large_Suitcase">
</g>
<g id="Toiletries">
</g>
<g id="Camera">
</g>
<g id="Phone">
</g>
<g id="Laptop">
</g>
<g id="Passport">
</g>
<g id="Taxi">
</g>
<g id="Signs">
	<g id="XMLID_730_">
		<path id="XMLID_1034_" opacity="0.1" d="M62,69H34.096c-2.552,0-5.038-0.814-7.096-2.323L17,58l10-8.677
			C29.058,47.814,31.544,47,34.096,47H62c1.1,0,2,0.762,2,1.692v18.615C64,68.238,63.1,69,62,69z"/>
		<path id="XMLID_1033_" opacity="0.1" d="M74,101h17.904c2.552,0,5.038-0.814,7.096-2.323L109,90l-10-8.677
			C96.942,79.814,94.456,79,91.904,79H74c-1.1,0-2,0.762-2,1.692v18.615C72,100.238,72.9,101,74,101z"/>
		
			<line id="XMLID_928_" fill="none" stroke="#000000" stroke-width="4" stroke-linecap="round" stroke-linejoin="round" stroke-miterlimit="10" x1="50" y1="127" x2="86" y2="127"/>
		
			<path id="XMLID_943_" fill="none" stroke="#000000" stroke-width="4" stroke-linecap="round" stroke-linejoin="round" stroke-miterlimit="10" d="
			M62,69H34.096c-2.552,0-5.038-0.814-7.096-2.323L17,58l10-8.677C29.058,47.814,31.544,47,34.096,47H62c1.1,0,2,0.762,2,1.692
			v18.615C64,68.238,63.1,69,62,69z"/>
		
			<path id="XMLID_520_" fill="none" stroke="#000000" stroke-width="4" stroke-linecap="round" stroke-linejoin="round" stroke-miterlimit="10" d="
			M74,51h35.904c2.552,0,5.038-0.814,7.096-2.323L127,40l-10-8.677c-2.058-1.509-4.544-2.323-7.096-2.323H74c-1.1,0-2,0.762-2,1.692
			v18.615C72,50.238,72.9,51,74,51z"/>
		
			<path id="XMLID_521_" fill="none" stroke="#000000" stroke-width="4" stroke-linecap="round" stroke-linejoin="round" stroke-miterlimit="10" d="
			M74,101h17.904c2.552,0,5.038-0.814,7.096-2.323L109,90l-10-8.677C96.942,79.814,94.456,79,91.904,79H74c-1.1,0-2,0.762-2,1.692
			v18.615C72,100.238,72.9,101,74,101z"/>
		
			<path id="XMLID_959_" fill="none" stroke="#000000" stroke-width="4" stroke-linecap="round" stroke-linejoin="round" stroke-miterlimit="10" d="
			M72,127h-8V21c0-2.2,1.8-4,4-4h0c2.2,0,4,1.8,4,4V127z"/>
	</g>
</g>
<g id="Airport">
</g>
<g id="Wind_Sock">
</g>
<g id="Check-In">
</g>
<g id="Ticket">
</g>
<g id="Wallet">
</g>
<g id="Tag">
</g>
<g id="Escalator">
</g>
<g id="Body_Scanner">
</g>
<g id="Walking_with_Suitcase">
</g>
<g id="Gate_Number">
</g>
<g id="Seats">
</g>
<g id="Seat_Belt">
</g>
<g id="Take_Off">
</g>
<g id="Plane_Window">
</g>
<g id="International_Travel">
</g>
<g id="Meal">
</g>
<g id="Landing">
</g>
<g id="Shuttle_Bus">
</g>
<g id="Hotel">
</g>
<g id="Hotel_Check-In">
</g>
<g id="Valet_1_">
</g>
<g id="Baggage_Trolley">
</g>
<g id="Door_Hanger">
</g>
<g id="Hotel_Room">
</g>
<g id="Shower">
</g>
</svg>
