<?xml version="1.0" encoding="utf-8"?>
<!-- Generator: Adobe Illustrator 18.1.1, SVG Export Plug-In . SVG Version: 6.00 Build 0)  -->
<svg version="1.1" id="Icons" xmlns="http://www.w3.org/2000/svg" xmlns:xlink="http://www.w3.org/1999/xlink" x="0px" y="0px"
	 viewBox="0 0 144 144" enable-background="new 0 0 144 144" xml:space="preserve">
<g id="Travel_Planning">
</g>
<g id="Globe_1_">
</g>
<g id="Map">
</g>
<g id="Flight_Date">
</g>
<g id="Alarm_Clock">
</g>
<g id="Small_Suitcase">
</g>
<g id="Backpack">
</g>
<g id="Large_Suitcase">
</g>
<g id="Toiletries">
</g>
<g id="Camera">
</g>
<g id="Phone">
</g>
<g id="Laptop">
</g>
<g id="Passport">
</g>
<g id="Taxi">
</g>
<g id="Signs">
</g>
<g id="Airport">
</g>
<g id="Wind_Sock">
</g>
<g id="Check-In">
</g>
<g id="Ticket">
	<g id="XMLID_858_">
		<polygon id="XMLID_575_" opacity="0.1" points="64.945,17.007 68,10 116,29 89,95 106,28 		"/>
		<polygon id="XMLID_762_" opacity="0.1" points="59.136,128.965 68,131 97,26 87.372,23.276 		"/>
		
			<line id="XMLID_414_" fill="none" stroke="#000000" stroke-width="4" stroke-miterlimit="10" x1="58.656" y1="129.607" x2="87.372" y2="23.276"/>
		
			<line id="XMLID_428_" fill="none" stroke="#000000" stroke-width="4" stroke-miterlimit="10" x1="68.365" y1="132.197" x2="97.082" y2="25.865"/>
		
			<line id="XMLID_761_" fill="none" stroke="#000000" stroke-width="4" stroke-miterlimit="10" x1="68.365" y1="132.197" x2="97.082" y2="25.865"/>
		
			<line id="XMLID_430_" fill="none" stroke="#000000" stroke-width="4" stroke-linecap="round" stroke-linejoin="round" stroke-miterlimit="10" x1="64.847" y1="30" x2="61" y2="44"/>
		
			<line id="XMLID_429_" fill="none" stroke="#000000" stroke-width="4" stroke-linecap="round" stroke-linejoin="round" stroke-miterlimit="10" x1="71" y1="31.608" x2="68.802" y2="39.608"/>
		
			<text id="XMLID_431_" transform="matrix(0.2551 -0.9447 0.9664 0.2569 50.7518 119.8457)" font-family="'MyriadPro-Semibold'" font-size="20.4038">Ticket</text>
		<g id="XMLID_418_">
			<path id="XMLID_419_" fill="none" stroke="#000000" stroke-width="4" stroke-miterlimit="10" d="M87.43,100.205l28.409-69.153
				c0.454-1.106-0.086-2.381-1.202-2.834L70.123,10.161c-1.115-0.452-2.4,0.082-2.854,1.189l-2.324,5.657"/>
		</g>
		<path id="XMLID_450_" fill="none" stroke="#000000" stroke-width="4" stroke-miterlimit="10" d="M106.321,30.256L78.738,132.39
			c-0.312,1.154-1.519,1.846-2.682,1.536l-46.433-12.344c-1.163-0.309-1.86-1.507-1.549-2.661L55.658,16.787
			c0.312-1.154,1.519-1.846,2.682-1.536l46.433,12.344C105.936,27.904,106.633,29.101,106.321,30.256z"/>
	</g>
</g>
<g id="Wallet">
</g>
<g id="Tag">
</g>
<g id="Escalator">
</g>
<g id="Body_Scanner">
</g>
<g id="Walking_with_Suitcase">
</g>
<g id="Gate_Number">
</g>
<g id="Seats">
</g>
<g id="Seat_Belt">
</g>
<g id="Take_Off">
</g>
<g id="Plane_Window">
</g>
<g id="International_Travel">
</g>
<g id="Meal">
</g>
<g id="Landing">
</g>
<g id="Shuttle_Bus">
</g>
<g id="Hotel">
</g>
<g id="Hotel_Check-In">
</g>
<g id="Valet_1_">
</g>
<g id="Baggage_Trolley">
</g>
<g id="Door_Hanger">
</g>
<g id="Hotel_Room">
</g>
<g id="Shower">
</g>
</svg>
